HIERARCHY
ROOT Hips
{
	OFFSET 0.00000 0.00000 0.00000
	CHANNELS 6 Xposition Yposition Zposition Zrotation Yrotation Xrotation 
	JOINT LHipJoint
	{
		OFFSET 0 0 0
		CHANNELS 3 Zrotation Yrotation Xrotation
		JOINT LeftHip
		{
			OFFSET 1.57358 -1.76629 0.73362
			CHANNELS 3 Zrotation Yrotation Xrotation
			JOINT LeftKnee
			{
				OFFSET 2.40600 -6.61045 0.00000
				CHANNELS 3 Zrotation Yrotation Xrotation
				JOINT LeftAnkle
				{
					OFFSET 2.66168 -7.31291 0.00000
					CHANNELS 3 Zrotation Yrotation Xrotation
					JOINT LeftToe
					{
						OFFSET 0.20870 -0.57341 2.12506
						CHANNELS 3 Zrotation Yrotation Xrotation
						End Site
						{
							OFFSET 0.00000 -0.00000 1.10557
						}
					}
				}
			}
		}
	}
	JOINT RHipJoint
	{
		OFFSET 0 0 0
		CHANNELS 3 Zrotation Yrotation Xrotation
		JOINT RightHip
		{
			OFFSET -1.49299 -1.76629 0.73362
			CHANNELS 3 Zrotation Yrotation Xrotation
			JOINT RightKnee
			{
				OFFSET -2.43663 -6.69460 0.00000
				CHANNELS 3 Zrotation Yrotation Xrotation
				JOINT RightAnkle
				{
					OFFSET -2.62959 -7.22474 0.00000
					CHANNELS 3 Zrotation Yrotation Xrotation
					JOINT RightToe
					{
						OFFSET -0.25784 -0.70841 2.21862
						CHANNELS 3 Zrotation Yrotation Xrotation
						End Site
						{
							OFFSET -0.00000 -0.00000 1.16452
						}
					}
				}
			}
		}
	}
	JOINT lowerback
	{
		OFFSET 0 0 0
		CHANNELS 3 Zrotation Yrotation Xrotation
		JOINT Chest
		{
			OFFSET -0.00034 2.12399 -0.25450
			CHANNELS 3 Zrotation Yrotation Xrotation
			JOINT Chest2
			{
				OFFSET 0.05594 2.14379 -0.03318
				CHANNELS 3 Zrotation Yrotation Xrotation
				JOINT lowerneck
				{
					OFFSET 0 0 0
					CHANNELS 3 Zrotation Yrotation Xrotation
					JOINT Neck
					{
						OFFSET -0.09835 1.62725 0.24211
						CHANNELS 3 Zrotation Yrotation Xrotation
						JOINT Head
						{
							OFFSET 0.10849 1.66041 -0.22648
							CHANNELS 3 Zrotation Yrotation Xrotation
							End Site
							{
								OFFSET 0.04385 1.68267 -0.10541
							}
						}
					}
				}
				JOINT LeftCollar
				{
					OFFSET 0 0 0
					CHANNELS 3 Zrotation Yrotation Xrotation
					JOINT LeftShoulder
					{
						OFFSET 3.29108 0.79398 -0.68179
CHANNELS 3 Zrotation Xrotation Yrotation
						JOINT LeftElbow
						{
OFFSET 0 -5.153100 -0.000000
CHANNELS 3 Zrotation Xrotation Yrotation
							JOINT LeftWrist
							{
OFFSET 0 -3.751380 -0.000000
CHANNELS 3 Zrotation Xrotation Yrotation
								JOINT lhand
								{
									OFFSET 0 0 0
CHANNELS 3 Zrotation Xrotation Yrotation
									JOINT LFingers
									{
OFFSET 0 -0.529170 0.000000
CHANNELS 3 Zrotation Xrotation Yrotation
										End Site
										{
OFFSET 0 -0.426630 0.000000
										}
									}
								}
								JOINT LThumb
								{
OFFSET 0 0.000000 0.000000
CHANNELS 3 Zrotation Xrotation Yrotation
									End Site
									{
OFFSET 0 -0.433150 0.433150
									}
								}
							}
						}
					}
				}
				JOINT RightCollar
				{
					OFFSET 0 0 0
					CHANNELS 3 Zrotation Yrotation Xrotation
					JOINT RightShoulder
					{
						OFFSET -3.07414 1.06285 -0.44338
CHANNELS 3 Zrotation Xrotation Yrotation
						JOINT RightElbow
						{
OFFSET 0 -5.296130 0.000000
CHANNELS 3 Zrotation Xrotation Yrotation
							JOINT RightWrist
							{
OFFSET 0 -3.761440 -0.000000
CHANNELS 3 Zrotation Xrotation Yrotation
								JOINT rhand
								{
									OFFSET 0 0 0
CHANNELS 3 Zrotation Xrotation Yrotation
									JOINT RFingers
									{
OFFSET 0 -0.747320 0.000000
CHANNELS 3 Zrotation Xrotation Yrotation
										End Site
										{
OFFSET 0 -0.602510 0.000000
										}
									}
								}
								JOINT RThumb
								{
OFFSET 0 0.000000 0.000000
CHANNELS 3 Zrotation Xrotation Yrotation
									End Site
									{
OFFSET 0 -0.611710 0.611710
									}
								}
							}
						}
					}
				}
			}
		}
	}
}
MOTION
Frames: 4
Frame Time: 0.008333333333333333
-8.847767 16.873656 -2.349156 -5.712844 35.336617 -2.447494 0.000000 0.000000 0.000000 -19.977691 -5.664579 -25.864870 11.212083 18.036415 63.467220 1.067181 -5.621892 -18.462813 0.008851 0.602661 1.655992 0.000000 0.000000 0.000000 10.350399 1.278308 -12.266788 -3.033955 -10.749725 31.440478 -0.031752 -9.397481 -13.948142 -1.174983 6.878329 -19.356020 3.238524 0.183318 9.724213 4.434453 0.871404 0.539858 2.689907 0.425061 -4.923369 -7.415528 -1.512225 -16.745835 -0.329480 0.165147 23.053854 1.151904 -0.574670 10.152823 0.000000 0.000000 0.000000 -1.922962 3.117800 -29.371265 19.231202 -29.704810 5.144930 21.059040 15.055324 -21.672356 0.000000 0.000000 0.000000 -7.125000 0.000000 0.000000 -7.992339 52.871525 1.553900 0.000000 0.000000 0.000000 -6.044955 8.173320 10.186961 -19.168804 -29.627697 -5.114100 -28.870970 -4.585476 -7.749045 0.000000 0.000000 0.000000 7.125000 0.000000 0.000000 -1.477330 21.148347 -0.845109
-8.833102 16.888968 -2.267668 -5.770132 36.267650 -2.470482 0.000000 0.000000 0.000000 -20.068673 -5.587737 -26.419409 11.051450 17.958846 62.946859 1.091542 -6.007476 -18.663039 0.011154 0.675382 1.855975 0.000000 0.000000 0.000000 10.531798 1.098323 -11.618963 -3.004664 -10.702376 31.282835 0.002144 -9.994643 -14.230825 -1.227948 7.025388 -19.791661 3.166773 0.194953 9.674440 4.424959 0.876212 0.539373 2.719521 0.429384 -4.896906 -7.400984 -1.541475 -16.708505 -0.349640 0.122242 22.992162 1.136511 -0.592810 10.125270 0.000000 0.000000 0.000000 -1.798285 3.311400 -29.509395 19.308206 -29.799631 5.183189 20.744521 14.818172 -21.106868 0.000000 0.000000 0.000000 -7.125000 0.000000 0.000000 -8.113218 52.231174 1.449101 0.000000 0.000000 0.000000 -6.124666 8.350760 10.646882 -19.266412 -29.748091 -5.162500 -28.885110 -4.814629 -7.931535 0.000000 0.000000 0.000000 7.125000 0.000000 0.000000 -1.475391 20.940041 -0.850927
-8.818352 16.904262 -2.186260 -5.827205 37.197364 -2.493106 0.000000 0.000000 0.000000 -20.161310 -5.510496 -26.973401 10.890316 17.880901 62.424707 1.115861 -6.387294 -18.863027 0.013497 0.748663 2.057500 0.000000 0.000000 0.000000 10.712249 0.918525 -10.972252 -2.975235 -10.654779 31.124387 0.035588 -10.586002 -14.513854 -1.278487 7.165725 -20.207386 3.096264 0.206510 9.625265 4.415013 0.881063 0.538851 2.747954 0.433692 -4.870793 -7.386045 -1.570409 -16.672450 -0.369876 0.079847 22.931697 1.121098 -0.610727 10.098377 0.000000 0.000000 0.000000 -1.674961 3.502602 -29.639645 19.382777 -29.891459 5.220240 20.426656 14.584098 -20.543726 0.000000 0.000000 0.000000 -7.125000 0.000000 0.000000 -8.238247 51.592824 1.345021 0.000000 0.000000 0.000000 -6.205217 8.527631 11.107208 -19.364359 -29.868877 -5.211080 -28.909148 -5.048801 -8.120932 0.000000 0.000000 0.000000 7.125000 0.000000 0.000000 -1.479971 20.722914 -0.861030
-8.800293 16.918846 -2.108004 -5.875807 38.075190 -2.501429 0.000000 0.000000 0.000000 -20.318993 -5.417575 -27.505841 10.709442 17.788182 61.832069 1.138485 -6.540332 -19.053678 0.017416 0.843968 2.319660 0.000000 0.000000 0.000000 10.855388 0.746095 -10.369353 -2.940328 -10.597450 30.934302 0.051223 -10.949083 -14.810476 -1.233602 7.041695 -19.839780 3.074650 0.214994 9.599651 4.387298 0.887649 0.536871 2.729976 0.437409 -4.858431 -7.355583 -1.586892 -16.686549 -0.393106 0.057546 22.919496 1.104898 -0.619898 10.097448 0.000000 0.000000 0.000000 -1.604826 3.599483 -29.459942 19.361688 -29.865603 5.209735 19.977199 14.471098 -20.072856 0.000000 0.000000 0.000000 -7.125000 0.000000 0.000000 -8.526506 51.033153 1.269229 0.000000 0.000000 0.000000 -6.318823 8.682164 11.583451 -19.475622 -30.005067 -5.266752 -29.322487 -5.480401 -8.582025 0.000000 0.000000 0.000000 7.125000 0.000000 0.000000 -1.740959 20.158799 -1.039723
